<?xml version="1.0" standalone="no"?>
<!DOCTYPE svg PUBLIC "-//W3C//DTD SVG 20010904//EN"
 "http://www.w3.org/TR/2001/REC-SVG-20010904/DTD/svg10.dtd">
<svg version="1.0" xmlns="http://www.w3.org/2000/svg"
 width="132.000000pt" height="132.000000pt" viewBox="0 0 132.000000 132.000000"
 preserveAspectRatio="xMidYMid meet">
<metadata>
Created by potrace 1.11, written by Peter Selinger 2001-2013
</metadata>
<g transform="translate(0.000000,132.000000) scale(0.100000,-0.100000)"
fill="#000000" stroke="none">
<path d="M433 1215 c-37 -16 -89 -83 -98 -127 -5 -22 -2 -37 13 -57 10 -15 29
-45 40 -66 18 -37 19 -43 5 -68 -8 -15 -14 -45 -15 -65 -2 -72 32 -115 98
-126 18 -3 46 -19 64 -36 18 -16 40 -30 51 -30 27 0 40 -33 45 -109 6 -99 0
-116 -44 -127 -31 -8 -38 -15 -48 -50 -7 -25 -8 -47 -3 -55 7 -11 9 -11 9 -1
0 7 5 10 10 7 6 -4 10 5 10 19 0 14 5 26 10 26 6 0 10 8 8 18 -2 12 5 18 24
20 l28 3 -6 -113 c-3 -62 -7 -115 -10 -117 -4 -4 -30 -8 -63 -10 -8 -1 -11 -4
-7 -8 3 -4 -4 -13 -16 -20 l-23 -12 28 -1 c15 0 27 -4 27 -8 0 -5 20 0 44 12
37 17 43 23 37 41 -4 11 -6 38 -5 60 1 22 3 70 4 108 2 37 7 70 13 74 6 3 36
8 66 9 31 2 55 7 54 11 -1 4 -16 46 -33 93 -34 94 -33 88 -31 112 1 18 55 38
104 38 38 0 100 -33 125 -66 l19 -27 7 45 c10 63 1 89 -41 124 -45 36 -56 48
-98 106 -24 31 -53 55 -90 74 -49 23 -63 26 -116 21 -33 -4 -73 -14 -90 -23
-29 -15 -33 -14 -48 0 -11 12 -13 19 -5 24 22 13 94 134 100 167 7 42 -17 90
-56 110 -35 18 -55 18 -97 0z m84 -151 c5 -14 -57 -85 -68 -79 -13 9 -11 47 4
66 20 27 57 34 64 13z m-43 -183 c3 -4 -3 -16 -14 -26 -20 -18 -25 -11 -14 19
7 18 20 21 28 7z m222 -276 c9 -8 13 -15 10 -15 -3 0 6 -29 19 -65 32 -84 32
-105 1 -105 -13 0 -31 -2 -38 -5 -23 -9 -35 34 -33 111 3 92 12 109 41 79z"/>
<path d="M576 983 c-6 -14 -5 -15 5 -6 7 7 10 15 7 18 -3 3 -9 -2 -12 -12z"/>
<path d="M343 925 c0 -8 4 -12 9 -9 5 3 6 10 3 15 -9 13 -12 11 -12 -6z"/>
<path d="M335 889 c-4 -6 -5 -12 -2 -15 2 -3 7 2 10 11 7 17 1 20 -8 4z"/>
<path d="M591 483 c-1 -6 -4 -20 -7 -30 -5 -17 -5 -17 6 0 6 10 9 23 6 30 -3
9 -5 9 -5 0z"/>
<path d="M716 358 c3 -5 10 -6 15 -3 13 9 11 12 -6 12 -8 0 -12 -4 -9 -9z"/>
<path d="M495 169 c-4 -6 -5 -12 -2 -15 2 -3 7 2 10 11 7 17 1 20 -8 4z"/>
<path d="M600 60 c-9 -6 -10 -10 -3 -10 6 0 15 5 18 10 8 12 4 12 -15 0z"/>
</g>
</svg>
