<?xml version="1.0" standalone="no"?>
<!DOCTYPE svg PUBLIC "-//W3C//DTD SVG 20010904//EN"
 "http://www.w3.org/TR/2001/REC-SVG-20010904/DTD/svg10.dtd">
<svg version="1.0" xmlns="http://www.w3.org/2000/svg"
 width="224.000000pt" height="224.000000pt" viewBox="0 0 224.000000 224.000000"
 preserveAspectRatio="xMidYMid meet">
<metadata>
Created by potrace 1.11, written by Peter Selinger 2001-2013
</metadata>
<g transform="translate(0.000000,224.000000) scale(0.100000,-0.100000)"
fill="#000000" stroke="none">
<path d="M1002 2156 c3 -39 5 -41 35 -41 17 0 35 -4 40 -8 4 -5 1 -7 -7 -5
-12 2 -16 -9 -18 -49 -3 -47 -6 -53 -25 -54 -132 -5 -316 -72 -451 -164 l-67
-47 -51 51 -50 50 -54 -54 -55 -54 52 -50 c59 -55 60 -39 -10 -138 -39 -55
-96 -174 -116 -244 -16 -59 -18 -66 -30 -139 -8 -47 -9 -231 -1 -265 2 -11 9
-42 16 -70 75 -336 370 -631 694 -690 44 -9 46 -18 -27 100 -39 63 -51 74
-121 112 -97 52 -136 82 -209 158 -190 196 -261 502 -175 760 150 453 651 667
1073 457 272 -134 438 -414 429 -720 -9 -274 -173 -528 -424 -658 -30 -15 -58
-27 -62 -26 -4 1 -15 -13 -24 -31 -9 -17 -34 -58 -55 -89 -22 -32 -39 -61 -39
-64 0 -10 68 5 144 32 212 74 403 241 506 444 12 25 27 53 31 63 40 78 70 230
71 357 1 209 -61 390 -194 568 l-40 54 36 37 c20 20 36 40 36 44 0 3 -23 29
-52 57 l-51 50 -39 -40 c-22 -22 -41 -40 -43 -40 -3 0 -35 20 -72 44 -85 54
-113 68 -188 94 -80 27 -129 39 -195 47 -30 4 -57 9 -60 11 -2 3 -5 29 -6 58
-1 50 0 52 25 52 24 -1 26 2 26 39 l0 40 -103 1 -103 1 3 -41z m123 -46 c17
-8 16 -8 -7 -7 -16 1 -28 5 -28 9 0 10 9 9 35 -2z"/>
<path d="M1053 1786 c-48 -41 -25 -120 37 -129 55 -9 98 41 84 97 -12 50 -80
67 -121 32z"/>
<path d="M602 1595 c-25 -21 -30 -32 -26 -57 5 -43 35 -71 75 -70 39 1 66 26
74 69 4 26 0 35 -26 57 -38 33 -60 33 -97 1z"/>
<path d="M1504 1595 c-68 -68 34 -170 104 -105 33 31 33 72 -1 108 -28 30 -71
29 -103 -3z"/>
<path d="M1060 1258 c-136 -37 -180 -210 -78 -305 95 -89 249 -50 291 72 46
134 -78 270 -213 233z"/>
<path d="M568 1221 c-119 -61 -83 -237 49 -243 99 -3 165 102 119 191 -30 58
-109 82 -168 52z"/>
<path d="M1534 1222 c-68 -36 -93 -101 -65 -170 37 -89 174 -98 227 -16 22 32
21 107 0 139 -35 53 -109 75 -162 47z"/>
<path d="M559 936 c-49 -17 -96 -52 -104 -77 -18 -54 118 -252 229 -333 43
-32 57 -25 55 29 -3 52 11 115 38 171 14 30 29 57 34 60 29 18 -34 110 -96
140 -44 21 -112 25 -156 10z m117 -157 c21 -23 12 -84 -16 -99 -45 -24 -97 0
-101 46 -4 40 2 52 32 67 36 17 61 13 85 -14z"/>
<path d="M1516 935 c-45 -16 -100 -65 -116 -106 -10 -24 -9 -32 7 -56 42 -63
63 -131 63 -210 0 -28 5 -55 10 -58 18 -11 125 81 181 155 42 57 96 163 94
187 -2 25 -33 56 -80 81 -39 20 -111 23 -159 7z m131 -173 c14 -52 -12 -92
-59 -92 -53 0 -83 53 -57 101 24 46 103 40 116 -9z"/>
<path d="M1098 864 c-2 -1 -23 -5 -48 -9 -137 -20 -253 -171 -236 -310 5 -44
52 -154 103 -240 25 -42 138 -204 167 -239 l24 -29 18 29 c10 16 25 36 33 44
23 24 144 212 178 275 17 33 39 86 49 118 48 155 -65 324 -238 356 -26 4 -49
7 -50 5z m82 -241 c37 -47 16 -120 -39 -143 -92 -38 -170 72 -106 149 41 47
105 45 145 -6z"/>
</g>
</svg>
